<svg width="30" height="30" viewBox="0 0 30 30" fill="none" xmlns="http://www.w3.org/2000/svg">
<g id="emotion Icon">
<circle id="Ellipse 191" cx="15" cy="15" r="15" fill="#36384E"/>
<g id="Vector 413">
<path d="M9.60577 12.3656H7.5C7.22386 12.3656 7 12.5894 7 12.8656V21.5C7 21.7761 7.22386 22 7.5 22H9.60577C9.88191 22 10.1058 21.7761 10.1058 21.5V12.8656C10.1058 12.5894 9.88191 12.3656 9.60577 12.3656Z" fill="#F9F96C"/>
<path d="M11.8779 11.5327L16.9067 6.23984C17.0449 6.09442 17.2576 6.047 17.4239 6.15916C17.6748 6.32838 18.035 6.64996 18.2788 7.2043C18.576 7.87976 18.009 9.93758 17.6774 11.0106C17.5759 11.3389 17.8199 11.6774 18.1636 11.6774H23.3476C23.6766 11.6774 23.9159 11.9897 23.8304 12.3074L21.3208 21.63C21.262 21.8483 21.0683 22 20.8422 22H12.2364C11.9602 22 11.7404 21.7761 11.7404 21.5V11.8771C11.7404 11.7489 11.7896 11.6256 11.8779 11.5327Z" fill="#F9F96C"/>
</g>
</g>
</svg>
