<svg width="30" height="30" viewBox="0 0 30 30" fill="none" xmlns="http://www.w3.org/2000/svg">
<g id="emotion Icon">
<circle id="Ellipse 191" cx="15" cy="15" r="15" fill="#36384E"/>
<path id="Vector" d="M7 16.0406V16.6805C6.99999 17.7755 7.20786 18.8598 7.61168 19.8711C8.01549 20.8824 8.60731 21.8008 9.3532 22.5737C10.0991 23.3467 10.9844 23.9588 11.9583 24.3752C12.9321 24.7915 13.9755 25.0038 15.0285 24.9999C19.1823 24.9847 22.5669 21.6354 22.9608 17.4181C22.965 17.3631 22.9556 17.308 22.9333 17.258C22.9111 17.2079 22.8768 17.1647 22.8338 17.1326C22.7907 17.1004 22.7405 17.0803 22.6878 17.0742C22.6351 17.0682 22.5818 17.0764 22.5331 17.0981C21.9796 17.3397 21.3655 17.3875 20.7836 17.234C20.2017 17.0806 19.6836 16.7344 19.3077 16.2478C19.0614 16.5663 18.7525 16.8266 18.4017 17.0111C18.051 17.1957 17.6664 17.3002 17.2737 17.3179C16.8809 17.3355 16.4891 17.2658 16.1243 17.1134C15.7596 16.961 15.4303 16.7294 15.1585 16.4341C14.9093 16.855 14.5706 17.2108 14.1685 17.4741C14.6185 17.8321 14.9831 18.2932 15.234 18.8214C15.4849 19.3497 15.6154 19.931 15.6154 20.5203C15.6157 20.609 15.5982 20.6968 15.5641 20.7782C15.53 20.8596 15.48 20.9327 15.4173 20.9928C15.3546 21.053 15.2805 21.099 15.1998 21.1278C15.1191 21.1566 15.0335 21.1676 14.9485 21.1602C14.7923 21.1427 14.648 21.0653 14.5437 20.9432C14.4395 20.821 14.3828 20.6628 14.3846 20.4995C14.3793 19.8242 14.1177 19.1784 13.6566 18.7028C13.1956 18.2273 12.5725 17.9604 11.9231 17.9604C11.8387 17.9606 11.7552 17.9428 11.6778 17.908C11.6003 17.8732 11.5306 17.8223 11.4729 17.7583C11.4151 17.6943 11.3707 17.6186 11.3423 17.536C11.3139 17.4534 11.3021 17.3656 11.3077 17.2781C11.3215 17.1136 11.3945 16.9606 11.5122 16.8498C11.6299 16.739 11.7835 16.6785 11.9423 16.6805H12.5385C13.0281 16.6805 13.4977 16.4783 13.8439 16.1182C14.1901 15.7582 14.3846 15.2698 14.3846 14.7607V13.4808H9.46154C8.8087 13.4808 8.1826 13.7504 7.72097 14.2305C7.25934 14.7106 7 15.3617 7 16.0406ZM21.4054 16.0406C20.5715 16.0086 19.9231 15.2702 19.9231 14.4023V12.5624C19.9231 11.6913 20.5715 10.9529 21.4054 10.9209C21.6121 10.9131 21.8182 10.9487 22.0114 11.0255C22.2046 11.1024 22.3809 11.219 22.5297 11.3684C22.6786 11.5177 22.797 11.6968 22.8778 11.8948C22.9586 12.0928 23.0001 12.3057 23 12.5208V14.4407C23.0001 14.6558 22.9586 14.8687 22.8778 15.0667C22.797 15.2647 22.6786 15.4438 22.5297 15.5931C22.3809 15.7425 22.2046 15.8591 22.0114 15.936C21.8182 16.0128 21.6121 16.0484 21.4054 16.0406ZM17.0977 16.0406C16.2638 16.0094 15.6154 15.271 15.6154 14.4031V10.6434C15.6154 9.77541 16.2638 9.03706 17.0977 9.00587C17.304 8.99803 17.5097 9.03346 17.7026 9.11004C17.8955 9.18663 18.0716 9.3028 18.2204 9.45164C18.3692 9.60048 18.4876 9.77894 18.5687 9.9764C18.6498 10.1738 18.6918 10.3863 18.6923 10.601V14.4407C18.6924 14.6558 18.6509 14.8687 18.5701 15.0667C18.4893 15.2647 18.3709 15.4438 18.222 15.5931C18.0732 15.7425 17.8969 15.8591 17.7037 15.936C17.5105 16.0128 17.3044 16.0484 17.0977 16.0406ZM11.3077 10.601C11.3076 10.3858 11.3491 10.1729 11.4299 9.97491C11.5107 9.77689 11.6291 9.59786 11.778 9.44851C11.9268 9.29915 12.1031 9.18255 12.2963 9.10567C12.4895 9.02879 12.6956 8.99321 12.9023 9.00107C13.7362 9.03306 14.3846 9.77141 14.3846 10.6394V12.2008H11.6154C11.5338 12.2008 11.4555 12.1671 11.3978 12.1071C11.3401 12.0471 11.3077 11.9657 11.3077 11.8809V10.601Z" fill="#F9F96C"/>
<path id="Line 47" d="M7 8L8.41421 9.41421" stroke="#F9F96C" stroke-linecap="round"/>
<path id="Line 49" d="M15.4336 5L15.0002 6.95247" stroke="#F9F96C" stroke-linecap="round"/>
<path id="Line 48" d="M10.7305 5.03699L11.2693 6.96302" stroke="#F9F96C" stroke-linecap="round"/>
</g>
</svg>
