<svg width="30" height="30" viewBox="0 0 30 30" fill="none" xmlns="http://www.w3.org/2000/svg">
<g id="emotion Icon">
<circle id="Ellipse 191" cx="15" cy="15" r="15" fill="#36384E"/>
<path id="Vector" d="M23.0715 13.7802L19.6543 16.8368L20.6954 21.4078C20.7529 21.656 20.7381 21.9162 20.6529 22.1556C20.5678 22.3951 20.4161 22.6029 20.217 22.7531C20.0179 22.9032 19.7804 22.9887 19.5344 22.999C19.2884 23.0092 19.045 22.9436 18.835 22.8106L15.0002 20.364L11.1631 22.8106C10.953 22.9429 10.7099 23.0078 10.4644 22.9972C10.2188 22.9866 9.9818 22.9009 9.78313 22.7509C9.58446 22.6009 9.43304 22.3934 9.34794 22.1544C9.26283 21.9154 9.24785 21.6556 9.30488 21.4078L10.3498 16.8368L6.9326 13.7802C6.74678 13.6137 6.6124 13.3942 6.54622 13.149C6.48005 12.9038 6.48502 12.6439 6.56052 12.4016C6.63602 12.1594 6.7787 11.9455 6.97075 11.7868C7.16279 11.6281 7.39568 11.5316 7.64034 11.5092L12.1206 11.1346L13.8489 6.79886C13.9425 6.56257 14.1017 6.36045 14.3064 6.2182C14.511 6.07595 14.7519 6 14.9983 6C15.2447 6 15.4855 6.07595 15.6901 6.2182C15.8948 6.36045 16.054 6.56257 16.1476 6.79886L17.8751 11.1346L22.3554 11.5092C22.6006 11.5307 22.8341 11.6267 23.0269 11.7852C23.2196 11.9437 23.3629 12.1576 23.4389 12.4002C23.5149 12.6428 23.5201 12.9032 23.4539 13.1488C23.3878 13.3944 23.2532 13.6143 23.0669 13.781L23.0715 13.7802Z" fill="#F9F96C"/>
</g>
</svg>
