<svg width="40" height="40" viewBox="0 0 40 40" fill="none" xmlns="http://www.w3.org/2000/svg">
<g id="Frame 2087327487">
<path id="Exclude" fill-rule="evenodd" clip-rule="evenodd" d="M20 40C31.0457 40 40 31.0457 40 20C40 8.9543 31.0457 0 20 0C8.9543 0 0 8.9543 0 20C0 31.0457 8.9543 40 20 40ZM12.6419 20.5718H27.4278C28.059 20.5718 28.562 21.0838 28.4817 21.7098C28.1672 24.16 26.7412 29.7147 20.2757 29.7147C13.863 29.7147 12.0774 24.2502 11.5972 21.7704C11.4721 21.1241 11.9835 20.5718 12.6419 20.5718ZM17.1417 14.8574C17.1417 16.1197 16.1184 17.1431 14.856 17.1431C13.5937 17.1431 12.5703 16.1197 12.5703 14.8574C12.5703 13.595 13.5937 12.5717 14.856 12.5717C16.1184 12.5717 17.1417 13.595 17.1417 14.8574ZM25.1412 17.1431C26.4035 17.1431 27.4269 16.1197 27.4269 14.8574C27.4269 13.595 26.4035 12.5717 25.1412 12.5717C23.8788 12.5717 22.8555 13.595 22.8555 14.8574C22.8555 16.1197 23.8788 17.1431 25.1412 17.1431Z" fill="#585A6C"/>
</g>
</svg>
