<svg width="24" height="24" viewBox="0 0 24 24" fill="none" xmlns="http://www.w3.org/2000/svg">
<g id="Icon/delete" clip-path="url(#clip0_1768_1253)">
<path id="Vector 211 (Stroke)" fill-rule="evenodd" clip-rule="evenodd" d="M3.5 3.5C3.86111 3.13889 4.44659 3.13889 4.8077 3.5L12 10.6923L19.1923 3.5C19.5534 3.13889 20.1389 3.13889 20.5 3.5C20.8611 3.86111 20.8611 4.44658 20.5 4.80769L13.3077 12L20.5 19.1923C20.8611 19.5534 20.8611 20.1389 20.5 20.5C20.1389 20.8611 19.5534 20.8611 19.1923 20.5L12 13.3077L4.8077 20.5C4.44659 20.8611 3.86111 20.8611 3.5 20.5C3.13889 20.1389 3.13889 19.5534 3.5 19.1923L10.6923 12L3.5 4.80769C3.13889 4.44658 3.13889 3.86111 3.5 3.5Z" fill="#FAFAFA"/>
</g>
<defs>
<clipPath id="clip0_1768_1253">
<rect width="24" height="24" fill="white"/>
</clipPath>
</defs>
</svg>
