<svg width="19" height="19" viewBox="0 0 19 19" fill="none" xmlns="http://www.w3.org/2000/svg">
<g id="Icon / Pencil" clip-path="url(#clip0_1421_4098)">
<g id="Union">
<path d="M15.0397 2.2286L17.8384 5.02726C18.1432 5.33206 18.1432 5.82624 17.8384 6.13104L16.2104 7.75897C15.9056 8.06377 15.4114 8.06377 15.1066 7.75897L12.308 4.96031C12.0032 4.65551 12.0032 4.16133 12.308 3.85653L13.9359 2.2286C14.2407 1.9238 14.7349 1.9238 15.0397 2.2286Z" fill="#585A6C"/>
<path d="M2.78049 17.6765H5.10998L5.12195 17.6767H17.6098C17.8253 17.6767 18 17.502 18 17.2865C18 17.0709 17.8253 16.8962 17.6098 16.8962H6.68275L14.326 9.25299C14.6308 8.94819 14.6308 8.45401 14.326 8.14921L11.5273 5.35055C11.2225 5.04575 10.7283 5.04575 10.4235 5.35055L2.2286 13.5455C2.08223 13.6919 2 13.8904 2 14.0974V16.896C2 17.3271 2.34944 17.6765 2.78049 17.6765Z" fill="#585A6C"/>
</g>
</g>
<defs>
<clipPath id="clip0_1421_4098">
<rect width="18.7317" height="18.7317" fill="white" transform="translate(0.244141 0.244141)"/>
</clipPath>
</defs>
</svg>
