<svg width="94" height="70" viewBox="0 0 94 70" fill="none" xmlns="http://www.w3.org/2000/svg">
<g id="Frame 2087327497" clip-path="url(#clip0_1421_4152)">
<g id="Vector 208" filter="url(#filter0_i_1421_4152)">
<path d="M52.3149 36.7959C51.1692 29.76 46.5 24 46.5 24C46.5 24 45.3543 23.3453 46.5 21C47.6457 18.6547 64.8103 12.0862 64.8103 9.74084C64.8103 7.3955 44.6838 1.37982 38.9552 0.207145C33.2265 -0.965527 29.0326 3.14561 28.6436 4.89787C28.2546 6.65013 27.1089 12.1697 27.1089 13.3423C27.1089 14.515 27.4979 18.9702 28.6436 20.1427C29.7894 21.3153 33.9833 22.7238 33.9833 22.7238V27.4145C33.9833 28.15 30.377 38.1133 27.4058 46.0174C25.6402 50.7145 24.0988 54.6845 23.6717 55.5586V68.2223C23.6717 68.2223 16.4073 106.92 20.2345 115.129C20.7271 116.186 21.3775 117.067 22.1573 117.799C21.7492 122.857 21.1919 127.477 20.2345 129.437C17.9431 134.128 14.8944 145.619 12.603 145.619C10.3115 145.619 6.87435 146.791 4.5829 146.791C2.29145 146.791 0 146.791 0 149.137C0 151.482 4.58289 151.482 8.02007 152.655C11.4573 153.827 17.9431 155 20.2345 155C22.526 155 25.9632 144.682 25.9632 141.164C25.9632 139.4 28.8436 129.971 31.7159 121.007C35.9106 121.218 40.5821 120.633 44.7673 120.098C48.04 127.509 51.1692 134.741 51.1692 135.3C51.1692 136.473 52.3149 144.682 51.1692 144.682C50.0234 144.682 42.0034 148.2 42.0034 149.372C42.0034 150.545 43.1491 151.718 44.2948 151.718C45.4405 151.718 63.015 150.684 64.1607 150.684C65.3064 150.684 65.3054 144.821 64.1607 142.475C63.5405 141.205 59.4432 129.225 55.636 118.138C70.3702 114.747 94.8926 107.391 93.975 103.638C92.8281 98.9475 86.1934 95.0196 76.1521 78.9962C64.9353 61.0968 52.3149 36.7959 52.3149 36.7959Z" fill="#1E202F"/>
</g>
</g>
<defs>
<filter id="filter0_i_1421_4152" x="0" y="0" width="94" height="155" filterUnits="userSpaceOnUse" color-interpolation-filters="sRGB">
<feFlood flood-opacity="0" result="BackgroundImageFix"/>
<feBlend mode="normal" in="SourceGraphic" in2="BackgroundImageFix" result="shape"/>
<feColorMatrix in="SourceAlpha" type="matrix" values="0 0 0 0 0 0 0 0 0 0 0 0 0 0 0 0 0 0 127 0" result="hardAlpha"/>
<feOffset/>
<feGaussianBlur stdDeviation="2"/>
<feComposite in2="hardAlpha" operator="arithmetic" k2="-1" k3="1"/>
<feColorMatrix type="matrix" values="0 0 0 0 0.980392 0 0 0 0 0.980392 0 0 0 0 0.980392 0 0 0 0.1 0"/>
<feBlend mode="normal" in2="shape" result="effect1_innerShadow_1421_4152"/>
</filter>
<clipPath id="clip0_1421_4152">
<rect width="94" height="70" fill="white"/>
</clipPath>
</defs>
</svg>
