<svg width="24" height="24" viewBox="0 0 24 24" fill="none" xmlns="http://www.w3.org/2000/svg">
<ellipse cx="11.6685" cy="12" rx="11.6685" ry="12" fill="#F9F96C"/>
<path d="M11.0303 14.0246V5.79321H13.2367V14.0246H11.0303ZM12.1335 18.2506C11.8733 18.2506 11.6385 18.1941 11.4292 18.0809C11.2199 17.9678 11.0558 17.8094 10.937 17.6057C10.8182 17.402 10.7588 17.1758 10.7588 16.9268C10.7588 16.6779 10.8182 16.4516 10.937 16.248C11.0558 16.0443 11.2199 15.8859 11.4292 15.7727C11.6385 15.6596 11.8733 15.603 12.1335 15.603C12.3938 15.603 12.6285 15.6596 12.8379 15.7727C13.0472 15.8859 13.2112 16.0443 13.33 16.248C13.4488 16.4516 13.5083 16.6779 13.5083 16.9268C13.5083 17.1758 13.4488 17.402 13.33 17.6057C13.2112 17.8094 13.0472 17.9678 12.8379 18.0809C12.6285 18.1941 12.3938 18.2506 12.1335 18.2506Z" fill="#585A6C"/>
</svg>
