<svg width="31" height="31" viewBox="0 0 31 31" fill="none" xmlns="http://www.w3.org/2000/svg">
<path d="M14.6933 3.22872C15.1651 2.85133 15.8354 2.85133 16.3071 3.22872L27.9321 12.5287C28.2385 12.7738 28.4168 13.145 28.4168 13.5373V27.1249C28.4168 27.8382 27.8385 28.4165 27.1252 28.4165H20.6668C19.9535 28.4165 19.3752 27.8382 19.3752 27.1249V19.3749C19.3752 18.6615 18.7969 18.0832 18.0835 18.0832H12.9168C12.2035 18.0832 11.6252 18.6615 11.6252 19.3749V27.1249C11.6252 27.8382 11.0469 28.4165 10.3335 28.4165H3.87516C3.1618 28.4165 2.5835 27.8382 2.5835 27.1249V13.5373C2.5835 13.145 2.76186 12.7738 3.06827 12.5287L14.6933 3.22872Z" fill="currentColor"/>
</svg>
