<svg width="32" height="31" viewBox="0 0 32 31" fill="none" xmlns="http://www.w3.org/2000/svg">
<g id="Icon / Letter">
<path id="Exclude" fill-rule="evenodd" clip-rule="evenodd" d="M11.3335 3C6.36293 3 2.3335 7.02944 2.3335 12V22C2.3335 22.5523 2.78121 23 3.3335 23H28.3335C28.8858 23 29.3335 22.5523 29.3335 22V12C29.3335 7.02944 25.3041 3 20.3335 3H11.3335ZM11.3163 5.353C7.45978 5.353 4.3335 8.47928 4.3335 12.3358V20.3472C4.3335 20.5129 4.46776 20.6471 4.63338 20.6471H17.9991C18.1648 20.6471 18.299 20.5129 18.299 20.3472V12.3358C18.299 8.47929 15.1727 5.353 11.3163 5.353Z" fill="currentColor"/>
<path id="Line 45" d="M7.8335 12H14.8335" stroke="currentColor" stroke-width="2" stroke-linecap="round"/>
<path id="Rectangle 240652311" d="M15.3335 23H20.3335V29C20.3335 29.5523 19.8858 30 19.3335 30H16.3335C15.7812 30 15.3335 29.5523 15.3335 29V23Z" fill="currentColor"/>
</g>
</svg>
