<svg width="60" height="60" viewBox="0 0 60 60" fill="none" xmlns="http://www.w3.org/2000/svg">
<circle cx="30" cy="30" r="30" fill="#FAFAFA" fill-opacity="0.1"/>
<path d="M42.738 32.0156V21.4453H44.6287V32.0156H42.738ZM43.6833 37.1719C43.2966 37.1719 42.9779 37.0465 42.7273 36.7959C42.4766 36.5452 42.3513 36.2266 42.3513 35.8398C42.3513 35.4531 42.4766 35.1344 42.7273 34.8838C42.9779 34.6331 43.2966 34.5078 43.6833 34.5078C44.0701 34.5078 44.3888 34.6331 44.6394 34.8838C44.8901 35.1344 45.0154 35.4531 45.0154 35.8398C45.0154 36.2266 44.8901 36.5452 44.6394 36.7959C44.3888 37.0465 44.0701 37.1719 43.6833 37.1719Z" fill="white"/>
<path d="M31.5576 37.3008C30.598 37.3008 29.7458 37.1217 29.001 36.7637C28.2562 36.3984 27.6761 35.8936 27.2607 35.249C26.8454 34.6045 26.6377 33.8776 26.6377 33.0684C26.6377 32.3164 26.806 31.6468 27.1426 31.0596C27.4863 30.4652 27.9089 29.9603 28.4102 29.5449C28.9115 29.1224 29.5059 28.6999 30.1934 28.2773L29.7529 27.7832C29.2588 27.2246 28.9007 26.7018 28.6787 26.2148C28.4639 25.7207 28.3564 25.2122 28.3564 24.6895C28.3564 24.002 28.5176 23.3896 28.8398 22.8525C29.1621 22.3154 29.6097 21.8965 30.1826 21.5957C30.7555 21.2949 31.4072 21.1445 32.1377 21.1445C32.8682 21.1445 33.5199 21.2985 34.0928 21.6064C34.6657 21.9072 35.1133 22.3298 35.4355 22.874C35.7578 23.4111 35.9189 24.0234 35.9189 24.7109C35.9189 25.2266 35.8187 25.6849 35.6182 26.0859C35.4176 26.487 35.1025 26.8773 34.6729 27.2568C34.2503 27.6364 33.6559 28.0804 32.8896 28.5889L36.4883 32.6494C36.8177 32.1051 37.0684 31.5107 37.2402 30.8662C37.4193 30.2145 37.5088 29.5378 37.5088 28.8359H39.3994C39.3994 29.8027 39.2526 30.7301 38.959 31.6182C38.6725 32.5062 38.2607 33.3154 37.7236 34.0459L40.3447 37H37.9385L36.5098 35.3887C35.8223 35.9974 35.056 36.4701 34.2109 36.8066C33.3659 37.1361 32.4814 37.3008 31.5576 37.3008ZM28.5283 33.0684C28.5283 33.5697 28.6536 34.0065 28.9043 34.3789C29.1549 34.7513 29.5094 35.0378 29.9678 35.2383C30.4333 35.4388 30.9775 35.5391 31.6006 35.5391C32.3024 35.5391 32.9684 35.4137 33.5986 35.1631C34.236 34.9053 34.8161 34.54 35.3389 34.0674L31.3428 29.5664C30.7341 29.9531 30.2327 30.3112 29.8389 30.6406C29.4521 30.9629 29.137 31.3245 28.8936 31.7256C28.6501 32.1266 28.5283 32.5742 28.5283 33.0684ZM30.2471 24.6895C30.2471 25.3125 30.5407 25.9499 31.1279 26.6016L31.7617 27.3105C32.3776 26.9023 32.8467 26.5514 33.1689 26.2578C33.4984 25.9642 33.724 25.6992 33.8457 25.4629C33.9674 25.2266 34.0283 24.9759 34.0283 24.7109C34.0283 24.36 33.946 24.0485 33.7813 23.7764C33.6237 23.4971 33.4017 23.2822 33.1152 23.1318C32.8288 22.9814 32.5029 22.9062 32.1377 22.9062C31.7725 22.9062 31.4466 22.9814 31.1602 23.1318C30.8737 23.2822 30.6481 23.4935 30.4834 23.7656C30.3258 24.0378 30.2471 24.3457 30.2471 24.6895Z" fill="white"/>
<path d="M15.4788 32.5312H13.094V30.9844H15.844L16.6604 27.4609H14.2542V25.9141H17.0042L18.0354 21.4453H19.7542L18.7229 25.9141H22.0745L23.1057 21.4453H24.8245L23.7932 25.9141H26.178V27.4609H23.4495L22.6331 30.9844H25.0178V32.5312H22.2678L21.2366 37H19.5178L20.5491 32.5312H17.1975L16.1663 37H14.4475L15.4788 32.5312ZM20.9788 31.0703L21.8381 27.375H18.3147L17.4553 31.0703H20.9788Z" fill="white"/>
</svg>
