<svg width="32" height="31" viewBox="0 0 32 31" fill="none" xmlns="http://www.w3.org/2000/svg">
<g id="Icon / System">
<path id="Subtract" fill-rule="evenodd" clip-rule="evenodd" d="M3.25 18.9391C3.55238 20.0756 4.00483 21.1667 4.59539 22.1838L8.16529 22.6019C8.45025 22.9229 8.75407 23.2267 9.07513 23.5116L9.47594 27.0796C10.4943 27.6665 11.586 28.1157 12.7225 28.4154L15.5282 26.1752C15.9571 26.2006 16.3872 26.2006 16.8161 26.1752L19.6218 28.4167C20.7585 28.1144 21.8498 27.662 22.8671 27.0715L23.2679 23.5049C23.5889 23.22 23.8927 22.9162 24.1777 22.5952L27.7463 22.1945C28.3333 21.1763 28.7826 20.0848 29.0823 18.9484L26.8418 16.1432C26.8672 15.7144 26.8672 15.2844 26.8418 14.8555L29.0836 12.0503C28.7813 10.9138 28.3288 9.82264 27.7383 8.8056L24.171 8.40486C23.8861 8.08385 23.5822 7.78009 23.2612 7.49517L22.8604 3.9272C21.8424 3.33797 20.7507 2.88652 19.6138 2.58471L16.8081 4.82487C16.3792 4.79949 15.9491 4.79949 15.5202 4.82487L12.7145 2.58337C11.5797 2.88267 10.4898 3.33142 9.47327 3.91785L9.07246 7.48448C8.7514 7.7694 8.44758 8.07317 8.16261 8.39417L4.59405 8.79492C4.00472 9.81272 3.5532 10.9043 3.25134 12.0409L5.49187 14.8462C5.46649 15.275 5.46649 15.705 5.49187 16.1339L3.25 18.9391ZM21.5054 15.4928C21.5054 18.4438 19.1127 20.836 16.1613 20.836C13.2098 20.836 10.8171 18.4438 10.8171 15.4928C10.8171 12.5418 13.2098 10.1495 16.1613 10.1495C19.1127 10.1495 21.5054 12.5418 21.5054 15.4928Z" fill="currentColor"/>
</g>
</svg>
